#!OML:ASF H:\Martial Arts Walks\Project 1\Capture day 1\Session 1\male.ASF
:FULLY-SPECIFIED
:DEGREES
1439
root -1.93259 14.2969 -4.48509 16.3953 -49.3961 -20.3354
lowerback 17.5731 5.14388 3.96815
upperback -3.33578 8.07726 2.24221
thorax -13.4055 3.53208 -2.02579
lowerneck -3.31785 8.45546 0.45349
upperneck 4.78784 11.1128 3.09116
head 1.90059 5.62233 1.17404
rclavicle -2.21148e-014 -1.74931e-014
rhumerus -55.7829 46.5879 -110.533
rradius 112.564
rwrist -80.7593
rhand 8.13048 -25.469
rfingers 7.12502
rthumb 33.3511 -52.3944
lclavicle -2.21148e-014 -1.74931e-014
lhumerus 7.12673 8.7285 80.1993
lradius 89.898
lwrist -27.3306
lhand -37.353 47.5922
lfingers 7.12502
lthumb -10.4152 -282.686
rfemur -20.1078 -19.8741 18.1688
rtibia 67.8375
rfoot -28.667 -22.3698
rtoes -25.6303
lfemur -56.8887 33.9501 -2.49279
ltibia 74.7805
lfoot -10.4796 1.98616
ltoes -6.95385
1440
root -1.94472 14.3002 -4.51345 16.3076 -49.4154 -20.2367
lowerback 17.5408 5.12084 4.00097
upperback -3.34735 8.05166 2.23518
thorax -13.3952 3.51787 -2.04168
lowerneck -3.27337 8.46468 0.448329
upperneck 4.80803 11.1243 3.11503
head 1.89743 5.62843 1.18069
rclavicle 1.49735e-013 -1.19271e-014
rhumerus -55.8021 46.5806 -110.406
rradius 112.623
rwrist -80.6083
rhand 8.23221 -25.4329
rfingers 7.12502
rthumb 33.4478 -52.3375
lclavicle 1.49735e-013 -1.19271e-014
lhumerus 7.17527 8.85121 80.2498
lradius 89.8321
lwrist -27.3281
lhand -37.3409 47.5928
lfingers 7.12502
lthumb -10.4035 -282.685
rfemur -20.1901 -19.8565 18.2486
rtibia 67.9518
rfoot -28.727 -22.4229
rtoes -25.4593
lfemur -56.7534 34.047 -2.47123
ltibia 74.5245
lfoot -10.5154 1.90698
ltoes -6.91096
1441
root -1.95704 14.3013 -4.54123 16.2054 -49.3741 -20.1152
lowerback 17.5071 5.08708 4.02256
upperback -3.36087 8.01005 2.23426
thorax -13.3897 3.49726 -2.04034
lowerneck -3.22748 8.46721 0.443352
upperneck 4.81587 11.127 3.14122
head 1.89001 5.63012 1.18725
rclavicle 1.15643e-013 7.95139e-016
rhumerus -55.835 46.5655 -110.296
rradius 112.693
rwrist -80.4448
rhand 8.31808 -25.3993
rfingers 7.12502
rthumb 33.5294 -52.2863
lclavicle 1.15643e-013 7.95139e-016
lhumerus 7.24053 8.98666 80.3434
lradius 89.7767
lwrist -27.2747
lhand -37.328 47.5788
lfingers 7.12502
lthumb -10.391 -282.698
rfemur -20.2779 -19.8846 18.3272
rtibia 68.0888
rfoot -28.7997 -22.4875
rtoes -25.2662
lfemur -56.6569 34.0719 -2.44252
ltibia 74.3016
lfoot -10.5904 1.79575
ltoes -7.03951
1442
root -1.96966 14.3003 -4.56857 16.081 -49.2866 -19.9589
lowerback 17.4722 5.04604 4.02109
upperback -3.37693 7.95394 2.23496
thorax -13.3905 3.47158 -2.0208
lowerneck -3.17905 8.46493 0.436107
upperneck 4.81112 11.1237 3.16863
head 1.87792 5.62869 1.19377
rclavicle -8.01102e-014 1.59028e-015
rhumerus -55.8853 46.5446 -110.215
rradius 112.77
rwrist -80.2859
rhand 8.38534 -25.3769
rfingers 7.12502
rthumb 33.5933 -52.2501
lclavicle -8.01102e-014 1.59028e-015
lhumerus 7.31847 9.13042 80.4682
lradius 89.7325
lwrist -27.1794
lhand -37.3135 47.5485
lfingers 7.12502
lthumb -10.3771 -282.728
rfemur -20.375 -19.9514 18.3926
rtibia 68.2504
rfoot -28.8872 -22.5623
rtoes -25.0573
lfemur -56.597 34.0375 -2.42574
ltibia 74.1066
lfoot -10.6941 1.67778
ltoes -7.30726
1443
root -1.98265 14.2977 -4.59551 15.9356 -49.1706 -19.7675
lowerback 17.4361 5.0026 3.99254
upperback -3.39553 7.88857 2.23388
thorax -13.3974 3.44346 -1.98598
lowerneck -3.12959 8.4598 0.423816
upperneck 4.79749 11.117 3.19758
head 1.86245 5.62546 1.20107
rclavicle 1.10325e-014 3.73715e-014
rhumerus -55.9533 46.5162 -110.166
rradius 112.851
rwrist -80.144
rhand 8.43538 -25.3724
rfingers 7.12502
rthumb 33.6409 -52.2352
lclavicle 1.10325e-014 3.73715e-014
lhumerus 7.40476 9.2769 80.6129
lradius 89.7001
lwrist -27.0625
lhand -37.2993 47.5083
lfingers 7.12502
lthumb -10.3633 -282.767
rfemur -20.4821 -20.0443 18.4397
rtibia 68.4332
rfoot -28.9895 -22.6451
rtoes -24.8435
lfemur -56.5698 33.9653 -2.43303
ltibia 73.9338
lfoot -10.8097 1.57062
ltoes -7.66574
1444
root -1.99598 14.2941 -4.62195 15.7773 -49.0452 -19.5504
lowerback 17.3979 4.96196 3.93997
upperback -3.41597 7.82125 2.22929
thorax -13.4078 3.41608 -1.94131
lowerneck -3.08074 8.4535 0.406351
upperneck 4.77955 11.1091 3.22576
head 1.84546 5.6215 1.20878
rclavicle -2.10712e-014 -8.74653e-015
rhumerus -56.0351 46.4782 -110.148
rradius 112.934
rwrist -80.0251
rhand 8.47277 -25.3865
rfingers 7.12502
rthumb 33.6764 -52.2415
lclavicle -2.10712e-014 -8.74653e-015
lhumerus 7.49509 9.42128 80.7679
lradius 89.6783
lwrist -26.9507
lhand -37.2879 47.4698
lfingers 7.12502
lthumb -10.3524 -282.805
rfemur -20.5978 -20.1486 18.4692
rtibia 68.6291
rfoot -29.1038 -22.7322
rtoes -24.6367
lfemur -56.5696 33.8811 -2.46844
ltibia 73.7782
lfoot -10.9172 1.48057
ltoes -8.05307
1445
root -2.00956 14.29 -4.64769 15.6194 -48.9275 -19.3246
lowerback 17.3562 4.92864 3.8722
upperback -3.43672 7.75979 2.22109
thorax -13.4176 3.39253 -1.89359
lowerneck -3.03658 8.44757 0.385627
upperneck 4.76353 11.102 3.25064
head 1.82995 5.61782 1.21635
rclavicle -2.84262e-014 1.59028e-015
rhumerus -56.1245 46.4297 -110.157
rradius 113.016
rwrist -79.9294
rhand 8.50512 -25.415
rfingers 7.12502
rthumb 33.7072 -52.2632
lclavicle -2.84262e-014 1.59028e-015
lhumerus 7.58635 9.55956 80.9255
lradius 89.6656
lwrist -26.8703
lhand -37.285 47.4473
lfingers 7.12502
lthumb -10.3496 -282.827
rfemur -20.7189 -20.2507 18.4873
rtibia 68.8284
rfoot -29.2268 -22.8172
rtoes -24.4463
lfemur -56.5903 33.8091 -2.52743
ltibia 73.6366
lfoot -10.9965 1.40205
ltoes -8.4045
1446
root -2.02322 14.286 -4.67243 15.475 -48.8301 -19.1075
lowerback 17.3095 4.90576 3.8001
upperback -3.45615 7.7107 2.2104
thorax -13.4223 3.37522 -1.84906
lowerneck -2.9994 8.44226 0.365146
upperneck 4.7531 11.0958 3.26857
head 1.81789 5.6145 1.22239
rclavicle 8.82604e-014 -2.06736e-014
rhumerus -56.2138 46.3716 -110.186
rradius 113.093
rwrist -79.8532
rhand 8.54056 -25.4524
rfingers 7.12502
rthumb 33.7408 -52.2933
lclavicle 8.82604e-014 -2.06736e-014
lhumerus 7.67551 9.68906 81.0808
lradius 89.6597
lwrist -26.8392
lhand -37.2948 47.4462
lfingers 7.12502
lthumb -10.359 -282.829
rfemur -20.8415 -20.3425 18.5009
rtibia 69.022
rfoot -29.3547 -22.8923
rtoes -24.2783
lfemur -56.6259 33.768 -2.60135
ltibia 73.5072
lfoot -11.0305 1.32109
ltoes -8.65876
